<?xml version="1.0" encoding="UTF-8" standalone="no"?>
<!-- Created with Inkscape (http://www.inkscape.org/) -->

<svg
   version="1.1"
   id="svg2"
   width="899.99994"
   height="899.99994"
   viewBox="0 0 899.99994 899.99994"
   sodipodi:docname="Äa logo.ai"
   inkscape:version="0.0"
   xmlns:inkscape="http://www.inkscape.org/namespaces/inkscape"
   xmlns:sodipodi="http://sodipodi.sourceforge.net/DTD/sodipodi-0.dtd"
   xmlns="http://www.w3.org/2000/svg"
   xmlns:svg="http://www.w3.org/2000/svg">
  <defs
     id="defs6">
    <clipPath
       clipPathUnits="userSpaceOnUse"
       id="clipPath18">
      <path
         d="M 0,500 H 500 V 0 H 0 Z"
         id="path16" />
    </clipPath>
  </defs>
  <sodipodi:namedview
     id="namedview4"
     pagecolor="#ffffff"
     bordercolor="#000000"
     borderopacity="0.25"
     inkscape:showpageshadow="2"
     inkscape:pageopacity="0.0"
     inkscape:pagecheckerboard="0"
     inkscape:deskcolor="#d1d1d1"
     showgrid="false"
     inkscape:zoom="1.206"
     inkscape:cx="229.68491"
     inkscape:cy="267.41294"
     inkscape:window-width="1920"
     inkscape:window-height="991"
     inkscape:window-x="-9"
     inkscape:window-y="-9"
     inkscape:window-maximized="1"
     inkscape:current-layer="g10" />
  <g
     id="g10"
     inkscape:groupmode="layer"
     inkscape:label="Page 1"
     transform="matrix(1.3333333,0,0,-1.3333333,116.66664,783.33331)">
    <circle
       style="fill:#ffffff;stroke-width:1.36154;stroke-opacity:0.733485"
       id="path353"
       cx="250.00002"
       cy="-250"
       transform="scale(1,-1)"
       r="337.5"
       inkscape:export-filename="round-logo.svg"
       inkscape:export-xdpi="96"
       inkscape:export-ydpi="96" />
    <g
       id="g12">
      <g
         id="g14"
         clip-path="url(#clipPath18)">
        <g
           id="g20"
           transform="translate(405.0397,198.6169)">
          <path
             d="m 0,0 h -56.932 c -25.197,0 -48.514,8.416 -67.227,22.673 -12.475,9.456 -22.921,21.535 -30.495,35.396 -7.575,-13.861 -18.02,-25.94 -30.495,-35.396 C -203.863,8.416 -227.18,0 -252.377,0 h -56.932 v 222.773 h 56.932 c 25.197,0 48.514,-8.416 67.228,-22.673 12.475,-9.455 22.92,-21.535 30.495,-35.396 7.574,13.861 18.02,25.941 30.495,35.396 18.713,14.257 42.03,22.673 67.227,22.673 H 0 Z m -56.932,267.328 c -36.98,0 -70.989,-12.871 -97.722,-34.406 -26.733,21.535 -60.743,34.406 -97.723,34.406 H -353.863 V -44.555 h 101.486 c 36.98,0 70.99,12.872 97.723,34.407 26.733,-21.535 60.742,-34.407 97.722,-34.407 H 44.555 v 311.883 z"
             style="fill:#1977f3;fill-opacity:1;fill-rule:nonzero;stroke:none"
             id="path22" />
        </g>
        <g
           id="g24"
           transform="translate(359.8903,245.6467)">
          <path
             d="m 0,0 c -36.91,0 -66.832,29.922 -66.832,66.832 0,36.911 29.922,66.832 66.832,66.832 z"
             style="fill:#1977f3;fill-opacity:1;fill-rule:nonzero;stroke:none"
             id="path26" />
        </g>
        <g
           id="g28"
           transform="translate(140.8796,245.6467)">
          <path
             d="m 0,0 c 36.911,0 66.832,29.922 66.832,66.832 0,36.911 -29.921,66.832 -66.832,66.832 z"
             style="fill:#1977f3;fill-opacity:1;fill-rule:nonzero;stroke:none"
             id="path30" />
        </g>
        <g
           id="g32"
           transform="translate(50.4059,122.4016)">
          <path
             d="M 0,0 H 23.767 V -17.317 H 14.033 V -33.725 H 22.7 V -50.186 H 14.033 V -86.53 H 0 Z"
             style="fill:#1977f3;fill-opacity:1;fill-rule:nonzero;stroke:none"
             id="path34" />
        </g>
        <g
           id="g36"
           transform="translate(94.3356,107.5964)">
          <path
             d="m 0,0 v -19.24 c 1.578,0 2.683,0.347 3.317,1.042 0.633,0.694 0.95,2.948 0.95,6.76 v 4.757 c 0,2.744 -0.307,4.543 -0.917,5.399 C 2.739,-0.427 1.622,0 0,0 M -14.033,14.805 H -4.1 c 6.622,0 11.105,-0.41 13.45,-1.23 2.344,-0.82 4.254,-2.912 5.733,-6.28 1.478,-3.367 2.217,-8.737 2.217,-16.113 0,-6.734 -0.523,-11.26 -1.567,-13.576 -1.045,-2.316 -3.1,-3.706 -6.166,-4.168 2.777,-1.105 4.643,-2.584 5.6,-4.436 0.955,-1.854 1.549,-3.555 1.783,-5.105 0.233,-1.549 0.35,-5.817 0.35,-12.8 V -71.725 H 4.267 v 28.754 c 0,4.632 -0.228,7.5 -0.684,8.606 -0.456,1.103 -1.65,1.656 -3.583,1.656 v -39.016 h -14.033 z"
             style="fill:#1977f3;fill-opacity:1;fill-rule:nonzero;stroke:none"
             id="path38" />
        </g>
        <path
           d="m 133.832,35.872 h -14.033 v 86.53 h 14.033 z"
           style="fill:#1977f3;fill-opacity:1;fill-rule:nonzero;stroke:none"
           id="path40" />
        <g
           id="g42"
           transform="translate(142.196,122.4016)">
          <path
             d="M 0,0 H 23.399 V -17.317 H 14.033 V -33.725 H 22.8 v -16.461 h -8.767 v -19.026 h 10.3 V -86.53 H 0 Z"
             style="fill:#1977f3;fill-opacity:1;fill-rule:nonzero;stroke:none"
             id="path44" />
        </g>
        <g
           id="g46"
           transform="translate(204.6257,122.4016)">
          <path
             d="m 0,0 v -86.53 h -12.3 l -7.3,39.336 V -86.53 H -31.333 V 0 H -19.6 l 7.867,-38.962 V 0 Z"
             style="fill:#1977f3;fill-opacity:1;fill-rule:nonzero;stroke:none"
             id="path48" />
        </g>
        <g
           id="g50"
           transform="translate(227.0217,107.5964)">
          <path
             d="m 0,0 v -56.92 c 2.022,0 3.267,0.649 3.734,1.951 0.466,1.3 0.7,4.837 0.7,10.609 v 33.617 c 0,3.92 -0.078,6.432 -0.234,7.536 C 4.044,-2.103 3.689,-1.292 3.134,-0.775 2.578,-0.258 1.534,0 0,0 m -14.033,14.805 h 10.5 c 6.778,0 11.361,-0.499 13.75,-1.497 2.388,-0.997 4.205,-2.637 5.45,-4.917 1.244,-2.28 2.021,-4.819 2.333,-7.616 0.311,-2.797 0.466,-8.293 0.466,-16.488 v -30.304 c 0,-7.767 -0.227,-12.961 -0.683,-15.58 -0.455,-2.618 -1.249,-4.668 -2.383,-6.145 -1.133,-1.48 -2.533,-2.512 -4.2,-3.101 -1.666,-0.588 -4.178,-0.882 -7.533,-0.882 h -17.7 z"
             style="fill:#1977f3;fill-opacity:1;fill-rule:nonzero;stroke:none"
             id="path52" />
        </g>
        <g
           id="g54"
           transform="translate(283.1852,96.2121)">
          <path
             d="m 0,0 h -13.034 v 6.414 c 0,2.993 -0.166,4.899 -0.499,5.719 -0.334,0.819 -0.889,1.229 -1.667,1.229 -0.845,0 -1.483,-0.553 -1.916,-1.659 -0.433,-1.105 -0.65,-2.781 -0.65,-5.027 0,-2.887 0.243,-5.063 0.73,-6.525 0.466,-1.462 1.787,-3.225 3.965,-5.29 6.248,-5.944 10.182,-10.823 11.804,-14.635 1.621,-3.814 2.434,-9.96 2.434,-18.439 0,-6.164 -0.451,-10.707 -1.351,-13.629 -0.9,-2.922 -2.638,-5.371 -5.216,-7.349 -2.578,-1.977 -5.579,-2.966 -8.999,-2.966 -3.756,0 -6.962,1.141 -9.618,3.42 -2.655,2.28 -4.394,5.185 -5.215,8.712 -0.823,3.527 -1.234,8.532 -1.234,15.019 v 5.665 h 13.033 v -10.53 c 0,-3.242 0.183,-5.326 0.55,-6.253 0.366,-0.926 1.016,-1.389 1.95,-1.389 0.933,0 1.627,0.589 2.083,1.763 0.455,1.176 0.683,2.921 0.683,5.239 0,5.094 -0.433,8.426 -1.3,9.994 -0.888,1.567 -3.077,4.186 -6.566,7.856 -3.489,3.705 -5.8,6.396 -6.933,8.071 -1.133,1.674 -2.072,3.99 -2.817,6.947 -0.745,2.957 -1.116,6.735 -1.116,11.331 0,6.627 0.527,11.473 1.583,14.538 1.055,3.064 2.761,5.46 5.117,7.188 2.355,1.728 5.199,2.592 8.533,2.592 3.644,0 6.749,-0.944 9.316,-2.833 2.566,-1.888 4.267,-4.267 5.1,-7.134 C -0.417,15.17 0,10.297 0,3.42 Z"
             style="fill:#1977f3;fill-opacity:1;fill-rule:nonzero;stroke:none"
             id="path56" />
        </g>
        <g
           id="g58"
           transform="translate(339.0114,84.7224)">
          <path
             d="m 0,0 h -14.033 v 15.039 c 0,4.372 -0.151,7.101 -0.45,8.186 -0.3,1.084 -0.961,1.627 -1.983,1.627 -1.156,0 -1.889,-0.66 -2.2,-1.978 -0.312,-1.318 -0.467,-4.168 -0.467,-8.551 v -40.192 c 0,-4.204 0.155,-6.947 0.467,-8.23 0.311,-1.283 1.011,-1.924 2.1,-1.924 1.044,0 1.727,0.642 2.049,1.927 0.323,1.286 0.484,4.305 0.484,9.056 v 10.876 H 0 v -3.372 c 0,-8.956 -0.395,-15.308 -1.184,-19.055 -0.789,-3.746 -2.533,-7.029 -5.233,-9.848 -2.699,-2.819 -6.027,-4.228 -9.982,-4.228 -4.112,0 -7.501,1.193 -10.167,3.58 -2.667,2.387 -4.433,5.692 -5.3,9.914 -0.867,4.223 -1.3,10.574 -1.3,19.054 v 25.28 c 0,6.235 0.133,10.912 0.4,14.03 0.266,3.117 1.061,6.12 2.384,9.005 1.321,2.886 3.154,5.158 5.499,6.815 2.344,1.656 5.039,2.485 8.083,2.485 4.134,0 7.544,-1.281 10.234,-3.843 2.688,-2.562 4.455,-5.756 5.299,-9.581 C -0.423,22.247 0,16.296 0,8.219 Z"
             style="fill:#1977f3;fill-opacity:1;fill-rule:nonzero;stroke:none"
             id="path60" />
        </g>
        <g
           id="g62"
           transform="translate(360.8083,122.4016)">
          <path
             d="M 0,0 V -69.212 H 8.533 V -86.53 H -14.032 V 0 Z"
             style="fill:#1977f3;fill-opacity:1;fill-rule:nonzero;stroke:none"
             id="path64" />
        </g>
        <g
           id="g66"
           transform="translate(407.3718,122.4016)">
          <path
             d="m 0,0 v -57.829 c 0,-6.556 -0.133,-11.162 -0.4,-13.816 -0.267,-2.655 -1.055,-5.38 -2.367,-8.177 -1.311,-2.798 -3.039,-4.917 -5.182,-6.36 -2.145,-1.443 -4.673,-2.164 -7.584,-2.164 -3.222,0 -6.066,0.854 -8.533,2.565 -2.467,1.71 -4.312,3.936 -5.534,6.681 -1.221,2.742 -1.944,5.638 -2.166,8.684 -0.222,3.046 -0.333,9.452 -0.333,19.214 V 0 h 14.033 v -64.884 c 0,-3.777 0.128,-6.192 0.383,-7.241 0.255,-1.052 0.772,-1.578 1.55,-1.578 0.889,0 1.461,0.579 1.717,1.738 0.255,1.157 0.384,3.891 0.384,8.204 V 0 Z"
             style="fill:#1977f3;fill-opacity:1;fill-rule:nonzero;stroke:none"
             id="path68" />
        </g>
        <g
           id="g70"
           transform="translate(429.5681,74.8874)">
          <path
             d="m 0,0 v -24.211 c 1.979,0.107 3.239,0.606 3.784,1.496 0.544,0.891 0.817,3.082 0.817,6.574 v 8.071 c 0,3.705 -0.245,5.95 -0.734,6.734 C 3.379,-0.553 2.09,-0.107 0,0 m 0,32.709 v -19.24 c 0.601,0.034 1.067,0.052 1.4,0.052 1.378,0 2.256,0.543 2.634,1.631 0.377,1.086 0.567,4.196 0.567,9.327 0,2.707 -0.157,4.604 -0.467,5.691 C 3.822,31.257 3.417,31.942 2.918,32.228 2.417,32.513 1.445,32.673 0,32.709 m -14.032,14.805 h 14 c 4.422,0 7.771,-0.553 10.05,-1.657 2.277,-1.104 4.116,-3.337 5.515,-6.702 1.401,-3.365 2.101,-8.786 2.101,-16.263 0,-5.057 -0.494,-8.581 -1.484,-10.576 -0.989,-1.995 -2.939,-3.525 -5.849,-4.593 3.244,-1.176 5.443,-3.128 6.599,-5.856 1.156,-2.727 1.734,-6.907 1.734,-12.54 v -8.021 c 0,-5.848 -0.417,-10.179 -1.25,-12.995 -0.834,-2.817 -2.162,-4.742 -3.984,-5.775 -1.822,-1.034 -5.555,-1.552 -11.2,-1.552 h -16.232 z"
             style="fill:#1977f3;fill-opacity:1;fill-rule:nonzero;stroke:none"
             id="path72" />
        </g>
      </g>
    </g>
  </g>
</svg>
